<?xml version="1.0" encoding="utf-8"?>
<COLLADA xmlns="http://www.collada.org/2005/11/COLLADASchema" version="1.4.1" xmlns:xsi="http://www.w3.org/2001/XMLSchema-instance">
  <asset>
    <contributor>
      <author>Blender User</author>
      <authoring_tool>Blender 4.3.2 commit date:2024-12-16, commit time:21:10, hash:32f5fdce0a0a</authoring_tool>
    </contributor>
    <created>2025-01-08T15:15:57</created>
    <modified>2025-01-08T15:15:57</modified>
    <unit name="meter" meter="1"/>
    <up_axis>Z_UP</up_axis>
  </asset>
  <library_images/>
  <library_geometries>
    <geometry id="ydlidar_add_on-mesh" name="ydlidar_add_on">
      <mesh>
        <source id="ydlidar_add_on-mesh-positions">
          <float_array id="ydlidar_add_on-mesh-positions-array" count="348">0.04094624 0.01997303 2.25902e-4 -0.008078277 0.01997303 2.25902e-4 -0.008078336 0 2.25902e-4 0.04094624 0 2.25902e-4 -0.03885227 0.01997303 -0.00423634 -0.04378271 0 -0.00423634 -0.04378271 0 2.25902e-4 -0.03885227 0.01997303 2.25902e-4 0.04094624 0.0551508 -0.00423634 -0.008078277 0.04202359 -0.00423634 -0.008078277 0.04202359 2.25902e-4 0.04094624 0.0551508 2.25902e-4 -0.02807635 0.03268259 2.25902e-4 -0.02807635 0.03268259 -0.00423634 0.07222521 0.05499821 2.25902e-4 0.06977558 0.06235897 2.25902e-4 0.06416749 0.06235897 2.25902e-4 0.07222521 0.04509377 2.25902e-4 0.07222521 0 2.25902e-4 0.07222521 0 -0.00423634 0.07222521 0.04509377 -0.00423634 0.1232931 0.04509371 -0.00423634 0.1232931 0.04509371 2.25902e-4 0.04094624 0.01997303 -0.00423634 -0.008078277 0.01997303 -0.00423634 0.07222521 0.05499821 -0.00423634 -0.008078277 0 -0.00423634 0.04094624 0 -0.00423634 0.09439843 0.1224501 -0.003185987 0.09206515 0.1475883 -0.003185987 0.08988642 0.1463378 -0.003185987 0.06178909 0.09839314 -0.003185987 0.1267833 0.1224842 -0.01166135 0.1267833 0.1476344 -0.01166135 0.1267833 0.1476344 -0.003185987 0.1267833 0.1224842 -0.003185987 0.07222521 0.0551508 -0.01166135 0.09484499 0.1224501 -0.01166135 0.07222521 0.0551508 -0.003185987 0.04094624 0.0551508 -0.01166135 0.04094624 0.0551508 -0.003185987 0.06178909 0.09839314 -0.01166135 0.09206515 0.1475883 -0.01166135 0.08988642 0.1463378 -0.01166135 0.1267833 0.0551508 -0.003185987 0.1267833 0.0551508 -0.01166135 0.1267833 0.03946328 -0.003185987 0.1267833 0.03946328 -0.01166135 0.07222521 0.03946328 -0.003185987 0.0393908 0 -0.01166135 0.04016852 0.02757537 -0.01166135 0.07222521 0.03946328 -0.01166135 0.07222521 0 -0.01166135 0.07222521 0 -0.003185987 0.04016852 0.02757537 -0.003185987 0.0393908 0 -0.003185987 0.1232931 0.05499815 -0.00423634 0.1232931 0.05499815 2.25902e-4 0.06977558 0.06235897 -0.00423634 0.06416749 0.06235897 -0.00423634 0.04094624 -0.01997303 2.25902e-4 -0.008078277 -0.01997303 2.25902e-4 -0.03885227 -0.01997303 -0.00423634 -0.03885227 -0.01997303 2.25902e-4 0.04094624 -0.0551508 -0.00423634 0.04094624 -0.0551508 2.25902e-4 -0.008078277 -0.04202359 2.25902e-4 -0.008078277 -0.04202359 -0.00423634 -0.02807635 -0.03268259 2.25902e-4 -0.02807635 -0.03268259 -0.00423634 0.07222521 -0.05499821 2.25902e-4 0.06416749 -0.06235897 2.25902e-4 0.06977558 -0.06235897 2.25902e-4 0.07222521 -0.04509377 2.25902e-4 0.07222521 -0.04509377 -0.00423634 0.1232931 -0.04509371 2.25902e-4 0.1232931 -0.04509371 -0.00423634 -0.008078277 -0.01997303 -0.00423634 0.04094624 -0.01997303 -0.00423634 0.07222521 -0.05499821 -0.00423634 0.09439843 -0.1224501 -0.003185987 0.06178909 -0.09839314 -0.003185987 0.08988642 -0.1463378 -0.003185987 0.09206515 -0.1475883 -0.003185987 0.1267833 -0.1224842 -0.01166135 0.1267833 -0.1224842 -0.003185987 0.1267833 -0.1476344 -0.003185987 0.1267833 -0.1476344 -0.01166135 0.07222521 -0.0551508 -0.01166135 0.07222521 -0.0551508 -0.003185987 0.09484499 -0.1224501 -0.01166135 0.04094624 -0.0551508 -0.01166135 0.06178909 -0.09839314 -0.01166135 0.04094624 -0.0551508 -0.003185987 0.09206515 -0.1475883 -0.01166135 0.08988642 -0.1463378 -0.01166135 0.1267833 -0.0551508 -0.01166135 0.1267833 -0.0551508 -0.003185987 0.1267833 -0.03946328 -0.01166135 0.1267833 -0.03946328 -0.003185987 0.07222521 -0.03946328 -0.003185987 0.07222521 -0.03946328 -0.01166135 0.04016852 -0.02757537 -0.01166135 0.04016852 -0.02757537 -0.003185987 0.1232931 -0.05499815 2.25902e-4 0.1232931 -0.05499815 -0.00423634 0.06977558 -0.06235897 -0.00423634 0.06416749 -0.06235897 -0.00423634 0.04941737 0.05737042 -0.01166129 0.04308336 -0.002830684 -0.01166129 0.04308336 -0.002830684 -0.04902786 0.04941737 0.05737042 -0.04902786 0.03778785 -0.002493441 -0.01166129 0.04284584 0.05547469 -0.01166129 0.04284584 0.05547469 -0.04902786 0.03778785 -0.002493441 -0.04902786</float_array>
          <technique_common>
            <accessor source="#ydlidar_add_on-mesh-positions-array" count="116" stride="3">
              <param name="X" type="float"/>
              <param name="Y" type="float"/>
              <param name="Z" type="float"/>
            </accessor>
          </technique_common>
        </source>
        <source id="ydlidar_add_on-mesh-normals">
          <float_array id="ydlidar_add_on-mesh-normals-array" count="618">0 0 1 0 0 1 -0.9708564 0.2396617 0 -0.9708564 0.2396617 0 -0.2586547 0.9659699 0 -0.2586547 0.9659699 0 0 0 1 0 0 1 -0.4232046 0.9060342 0 -0.4232046 0.9060342 0 0 0 1 0 0 1 0 0 1 0 0 1 1 0 0 1 0 0 -1.24011e-6 -1 0 -1.24011e-6 -1 0 0 0 1 0 0 1 0 0 1 0 0 1 -0.7627453 0.6466991 0 -0.7627453 0.6466991 0 0 0 1 0 0 1 0 0 -1 0 0 -1 0 0 -1 0 0 -1 0 0 -1 0 0 -1 0 0 -1 0 0 -1 0 0 -1 0 0 -1 0 0 -1 0 0 -1 0 0 1 0 0 1 1 0 0 1 0 0 0.9467117 -0.3181965 0.04987955 0.9497777 -0.3129251 0 0 0 -1 -0.9008186 0.4341956 7.91898e-7 -0.9008185 0.4341958 0 -0.001328766 0.9999991 0 -0.001328766 0.9999991 0 0 0 -1 0 0 -1 0 0 -1 -0.8627623 0.5056098 0 -0.8627623 0.5056098 0 0 0 1 0 0 1 0 1 0 0 1 0 0 0 1 0 0 1 -0.4977645 0.8673122 0 -0.4977645 0.8673122 0 0 0 -1 0 0 -1 1 0 0 1 0 0 0 0 1 0 0 1 0 0 -1 0 0 -1 1 0 0 1 0 0 0 -1 0 0 -1 0 0.001067936 -0.9999994 5.62676e-5 0.001053214 -0.9999994 0 0 0 -1 0 0 -1 0 0 -1 0 0 -1 -0.9996025 0.02819275 8.78737e-7 -0.9996025 0.02819246 0 -0.9996025 0.02819263 0 -0.9996025 0.02819263 0 1 0 0 1 0 0 0 0 -1 0 0 -1 1.31306e-6 1 0 1.31306e-6 1 0 0 0 1 0 0 1 0.9488365 0.3157679 0 0.9488365 0.3157679 0 0 1 0 0 1 0 0.296458 -0.9550459 0 0.296458 -0.9550459 0 0 0 1 0 0 1 -0.9708564 -0.2396617 0 -0.9708564 -0.2396617 0 -0.2586547 -0.9659699 0 -0.2586547 -0.9659699 0 0 0 1 0 0 1 -0.4232046 -0.9060342 0 -0.4232046 -0.9060342 0 0 0 1 0 0 1 0 0 1 0 0 1 1 0 0 1 0 0 -1.24011e-6 1 0 -1.24011e-6 1 0 0 0 1 0 0 1 0 0 1 0 0 1 -0.7627453 -0.6466991 0 -0.7627453 -0.6466991 0 0 0 1 0 0 1 0 0 -1 0 0 -1 0 0 -1 0 0 -1 0 0 -1 0 0 -1 0 0 -1 0 0 -1 0 0 -1 0 0 -1 0 0 -1 0 0 -1 0 0 1 0 0 1 1 0 0 1 0 0 0.9497777 0.3129251 0 0.9467117 0.3181965 0.04987955 0 0 -1 -0.9008185 -0.4341958 0 -0.9008186 -0.4341956 8.58423e-7 -0.001328766 -0.9999991 0 -0.001328766 -0.9999991 0 0 0 -1 0 0 -1 0 0 -1 -0.8627623 -0.5056098 0 -0.8627623 -0.5056098 0 0 0 1 0 0 1 0 -1 0 0 -1 0 0 0 1 0 0 1 -0.4977645 -0.8673122 0 -0.4977645 -0.8673122 0 0 0 -1 0 0 -1 1 0 0 1 0 0 0 0 1 0 0 1 0 0 -1 0 0 -1 1 0 0 1 0 0 0 1 0 0 1 0 0.001053214 0.9999994 0 0.001067936 0.9999994 5.62674e-5 0 0 -1 0 0 -1 0 0 -1 0 0 -1 -0.9996025 -0.02819246 0 -0.9996025 -0.02819275 8.78737e-7 -0.9996025 -0.02819263 0 -0.9996025 -0.02819263 0 1 0 0 1 0 0 0 0 -1 0 0 -1 1.31306e-6 -1 0 1.31306e-6 -1 0 0 0 1 0 0 1 0.9488365 -0.3157679 0 0.9488365 -0.3157679 0 0 -1 0 0 -1 0 0.296458 0.9550459 0 0.296458 0.9550459 0 0.9945106 -0.1046363 0 0.9945106 -0.1046363 0 -0.9962149 0.08692425 0 -0.9962149 0.08692425 0 0 0 -1 0 0 -1 -0.2771719 0.9608203 0 -0.2771719 0.9608203 0 -0.06356519 -0.9979777 0 -0.06356519 -0.9979777 0</float_array>
          <technique_common>
            <accessor source="#ydlidar_add_on-mesh-normals-array" count="206" stride="3">
              <param name="X" type="float"/>
              <param name="Y" type="float"/>
              <param name="Z" type="float"/>
            </accessor>
          </technique_common>
        </source>
        <vertices id="ydlidar_add_on-mesh-vertices">
          <input semantic="POSITION" source="#ydlidar_add_on-mesh-positions"/>
        </vertices>
        <triangles count="206">
          <input semantic="VERTEX" source="#ydlidar_add_on-mesh-vertices" offset="0"/>
          <input semantic="NORMAL" source="#ydlidar_add_on-mesh-normals" offset="1"/>
          <p>0 0 1 0 2 0 0 1 2 1 3 1 4 2 5 2 6 2 4 3 6 3 7 3 8 4 9 4 10 4 8 5 10 5 11 5 1 6 10 6 12 6 1 7 12 7 7 7 9 8 13 8 12 8 9 9 12 9 10 9 14 10 15 10 16 10 14 11 16 11 11 11 0 12 17 12 14 12 0 13 14 13 11 13 17 14 18 14 19 14 17 15 19 15 20 15 17 16 20 16 21 16 17 17 21 17 22 17 18 18 17 18 0 18 18 19 0 19 3 19 11 20 10 20 1 20 11 21 1 21 0 21 12 22 13 22 4 22 12 23 4 23 7 23 6 24 2 24 1 24 6 25 1 25 7 25 8 26 23 26 24 26 8 27 24 27 9 27 8 28 25 28 20 28 8 29 20 29 23 29 4 30 13 30 9 30 4 31 9 31 24 31 4 32 24 32 26 32 4 33 26 33 5 33 27 34 26 34 24 34 27 35 24 35 23 35 19 36 27 36 23 36 19 37 23 37 20 37 28 38 29 38 30 38 28 39 30 39 31 39 32 40 33 40 34 40 32 41 34 41 35 41 36 42 37 42 28 42 36 43 28 43 38 43 39 44 37 44 36 44 39 45 40 45 31 45 39 46 31 46 41 46 42 47 29 47 34 47 42 48 34 48 33 48 39 49 41 49 37 49 32 50 37 50 42 50 32 51 42 51 33 51 41 52 31 52 30 52 41 53 30 53 43 53 31 54 40 54 38 54 31 55 38 55 28 55 36 56 38 56 44 56 36 57 44 57 45 57 29 58 28 58 35 58 29 59 35 59 34 59 29 60 42 60 43 60 29 61 43 61 30 61 37 62 41 62 43 62 37 63 43 63 42 63 45 64 44 64 46 64 45 65 46 65 47 65 38 66 48 66 46 66 38 67 46 67 44 67 49 68 50 68 51 68 49 69 51 69 52 69 48 70 53 70 52 70 48 71 52 71 51 71 46 72 48 72 51 72 46 73 51 73 47 73 28 74 37 74 32 74 28 75 32 75 35 75 39 76 36 76 51 76 39 77 51 77 50 77 45 78 47 78 51 78 45 79 51 79 36 79 54 80 40 80 39 80 54 81 39 81 50 81 49 82 55 82 54 82 49 83 54 83 50 83 21 84 56 84 57 84 21 85 57 85 22 85 20 86 25 86 56 86 20 87 56 87 21 87 25 88 14 88 57 88 25 89 57 89 56 89 14 90 17 90 22 90 14 91 22 91 57 91 14 92 25 92 58 92 14 93 58 93 15 93 15 94 58 94 59 94 15 95 59 95 16 95 11 96 8 96 59 96 11 97 59 97 16 97 60 98 3 98 2 98 60 99 2 99 61 99 62 100 63 100 6 100 62 101 6 101 5 101 64 102 65 102 66 102 64 103 66 103 67 103 61 104 63 104 68 104 61 105 68 105 66 105 67 106 66 106 68 106 67 107 68 107 69 107 70 108 65 108 71 108 70 109 71 109 72 109 60 110 65 110 70 110 60 111 70 111 73 111 73 112 74 112 19 112 73 113 19 113 18 113 73 114 75 114 76 114 73 115 76 115 74 115 18 116 3 116 60 116 18 117 60 117 73 117 65 118 60 118 61 118 65 119 61 119 66 119 68 120 63 120 62 120 68 121 62 121 69 121 6 122 63 122 61 122 6 123 61 123 2 123 64 124 67 124 77 124 64 125 77 125 78 125 64 126 78 126 74 126 64 127 74 127 79 127 62 128 77 128 67 128 62 129 67 129 69 129 62 130 5 130 26 130 62 131 26 131 77 131 27 132 78 132 77 132 27 133 77 133 26 133 19 134 74 134 78 134 19 135 78 135 27 135 80 136 81 136 82 136 80 137 82 137 83 137 84 138 85 138 86 138 84 139 86 139 87 139 88 140 89 140 80 140 88 141 80 141 90 141 91 142 88 142 90 142 91 143 92 143 81 143 91 144 81 144 93 144 94 145 87 145 86 145 94 146 86 146 83 146 91 147 90 147 92 147 84 148 87 148 94 148 84 149 94 149 90 149 92 150 95 150 82 150 92 151 82 151 81 151 81 152 80 152 89 152 81 153 89 153 93 153 88 154 96 154 97 154 88 155 97 155 89 155 83 156 86 156 85 156 83 157 85 157 80 157 83 158 82 158 95 158 83 159 95 159 94 159 90 160 94 160 95 160 90 161 95 161 92 161 96 162 98 162 99 162 96 163 99 163 97 163 89 164 97 164 99 164 89 165 99 165 100 165 49 166 52 166 101 166 49 167 101 167 102 167 100 168 101 168 52 168 100 169 52 169 53 169 99 170 98 170 101 170 99 171 101 171 100 171 80 172 85 172 84 172 80 173 84 173 90 173 91 174 102 174 101 174 91 175 101 175 88 175 96 176 88 176 101 176 96 177 101 177 98 177 103 178 102 178 91 178 103 179 91 179 93 179 49 180 102 180 103 180 49 181 103 181 55 181 76 182 75 182 104 182 76 183 104 183 105 183 74 184 76 184 105 184 74 185 105 185 79 185 79 186 105 186 104 186 79 187 104 187 70 187 70 188 104 188 75 188 70 189 75 189 73 189 70 190 72 190 106 190 70 191 106 191 79 191 72 192 71 192 107 192 72 193 107 193 106 193 65 194 71 194 107 194 65 195 107 195 64 195 108 196 109 196 110 196 108 197 110 197 111 197 112 198 113 198 114 198 112 199 114 199 115 199 111 200 110 200 115 200 111 201 115 201 114 201 113 202 108 202 111 202 113 203 111 203 114 203 115 204 110 204 109 204 115 205 109 205 112 205</p>
        </triangles>
      </mesh>
    </geometry>
  </library_geometries>
  <library_visual_scenes>
    <visual_scene id="Scene" name="Scene">
      <node id="ydlidar_add_on" name="ydlidar_add_on" type="NODE">
        <matrix sid="transform">1 0 0 0 0 1 0 0 0 0 1 0 0 0 0 1</matrix>
        <instance_geometry url="#ydlidar_add_on-mesh" name="ydlidar_add_on"/>
      </node>
    </visual_scene>
  </library_visual_scenes>
  <scene>
    <instance_visual_scene url="#Scene"/>
  </scene>
</COLLADA>